<?xml version="1.0" encoding="UTF-8" standalone="no"?>
<!-- Created with Inkscape (http://www.inkscape.org/) -->

<svg
   xmlns:dc="http://purl.org/dc/elements/1.1/"
   xmlns:cc="http://creativecommons.org/ns#"
   xmlns:rdf="http://www.w3.org/1999/02/22-rdf-syntax-ns#"
   xmlns:svg="http://www.w3.org/2000/svg"
   xmlns="http://www.w3.org/2000/svg"
   version="1.1"
   width="141.7375"
   height="88.574997"
   id="svg2"
   xml:space="preserve"><metadata
     id="metadata8"><rdf:RDF><cc:Work
         rdf:about=""><dc:format>image/svg+xml</dc:format><dc:type
           rdf:resource="http://purl.org/dc/dcmitype/StillImage" /><dc:title></dc:title></cc:Work></rdf:RDF></metadata><defs
     id="defs6"><clipPath
       id="clipPath18"><path
         d="M 0,708.648 0,0 l 1133.86,0 0,708.648 -1133.86,0 z"
         id="path20" /></clipPath></defs><g
     transform="matrix(1.25,0,0,-1.25,0,88.575)"
     id="g10"><g
       transform="scale(0.1,0.1)"
       id="g12"><g
         id="g14"><g
           clip-path="url(#clipPath18)"
           id="g16"><path
             d="M 188.965,708.648 C 84.5977,708.648 0,624.086 0,519.684 L 0,0 944.883,0 c 104.387,0 188.977,84.5703 188.977,188.945 l 0,519.703 -944.895,0"
             id="path22"
             style="fill:#5d961c;fill-opacity:1;fill-rule:nonzero;stroke:none" /><path
             d="m 877.629,441.539 c 8.433,0 14.961,-5.91 14.961,-13.769 0,-7.793 -6.528,-13.692 -14.961,-13.692 -8.371,0 -14.492,6.445 -14.492,13.692 0,7.285 6.121,13.769 14.492,13.769"
             id="path24"
             style="fill:#ffffff;fill-opacity:1;fill-rule:nonzero;stroke:none" /><path
             d="m 866.379,308.145 22.918,0 0,91.7344 -22.918,0 0,-91.7344 z"
             id="path26"
             style="fill:#ffffff;fill-opacity:1;fill-rule:nonzero;stroke:none" /><path
             d="m 728.145,399.879 21.992,0 0,-15.313 0.383,0 c 4.976,10.528 14.707,17.957 26.746,17.957 1.699,0 4.035,-0.144 5.554,-0.574 l 0,-20.996 c -3.074,0.742 -4.976,0.965 -7.066,0.965 -20.649,0 -24.633,-17.977 -24.633,-24.676 l 0,-49.097 -22.976,0 0,91.734"
             id="path28"
             style="fill:#ffffff;fill-opacity:1;fill-rule:nonzero;stroke:none" /><path
             d="m 362.656,441.539 c 8.418,0 14.903,-5.91 14.903,-13.769 0,-7.793 -6.485,-13.692 -14.903,-13.692 -8.41,0 -14.531,6.445 -14.531,13.692 0,7.285 6.121,13.769 14.531,13.769"
             id="path30"
             style="fill:#ffffff;fill-opacity:1;fill-rule:nonzero;stroke:none" /><path
             d="m 374.309,399.879 0,-115.035 c 0,-10.137 -8.215,-18.36 -18.352,-18.36 l -4.578,0 0,133.395 22.93,0"
             id="path32"
             style="fill:#ffffff;fill-opacity:1;fill-rule:nonzero;stroke:none" /><path
             d="m 266.777,441.539 c 8.418,0 14.911,-5.91 14.911,-13.769 0,-7.793 -6.493,-13.692 -14.911,-13.692 -8.425,0 -14.531,6.445 -14.531,13.692 0,7.285 6.106,13.769 14.531,13.769"
             id="path34"
             style="fill:#ffffff;fill-opacity:1;fill-rule:nonzero;stroke:none" /><path
             d="m 255.496,308.145 22.9336,0 0,91.7344 -22.9336,0 0,-91.7344 z"
             id="path36"
             style="fill:#ffffff;fill-opacity:1;fill-rule:nonzero;stroke:none" /><path
             d="m 183.562,253.535 -4.421,0 c -10.098,0 -18.36,-8.223 -18.36,-18.301 l -0.144,0.938 0,-35.254 -0.571,0 c -4.785,5.957 -13.961,14.336 -30.769,14.336 -26.199,0 -44.5626,-21.016 -44.5626,-48.145 0,-26.757 17.2066,-48.925 45.1486,-48.925 12.762,0 25.207,5.918 31.472,16.386 l 0.422,0 0,-13.75 21.785,0 0,132.715 z M 161.355,166.68 c 0,-14.317 -10.085,-29.414 -26.902,-29.414 -17.781,0 -26.406,15.507 -26.406,29.843 0,14.356 8.625,29.434 26.406,29.434 16.817,0 26.902,-15.488 26.902,-29.863"
             id="path38"
             style="fill:#ffffff;fill-opacity:1;fill-rule:nonzero;stroke:none" /><path
             d="m 169.695,358.18 0,-50.035 -22.965,0 0,55.414 c 0,11.269 -5.335,19.843 -16.984,19.843 -13.75,0 -20.058,-12.586 -20.058,-24.812 l 0,-50.445 -22.9419,0 0,91.734 12.1523,0 c 5.2896,0 9.6176,-4.336 9.6176,-9.668 l 0,-5.059 0.379,0 c 4.003,8.953 13.769,17.371 28.476,17.371 14.133,0 23.508,-7.089 28.664,-17.371 6.121,11.043 16.414,17.371 30.203,17.371 23.852,0 33.813,-18.347 33.813,-37.058 l 0,-57.32 -22.922,0 0,50.816 c 0,10.906 -2.488,24.441 -17.219,24.441 -14.344,0 -20.215,-13.386 -20.215,-25.222"
             id="path40"
             style="fill:#ffffff;fill-opacity:1;fill-rule:nonzero;stroke:none" /><path
             d="m 294.133,165.586 c 0,33.047 -18.742,49.668 -44.36,49.668 -27.722,0 -48.523,-19.473 -48.523,-49.102 0,-29.843 21.035,-47.968 49.277,-47.968 17.395,0 30.403,6.074 39.383,18.339 l -15.293,12.207 c -5.144,-7.226 -12.832,-11.855 -24.265,-11.855 -13.379,0 -25.235,9.551 -26.153,22.598 l 69.696,0 c 0.238,2.089 0.238,3.984 0.238,6.113 z m -22.934,10.254 -47,0 c 0.918,12.851 11.824,22.226 25.391,22.226 14.914,0 21.609,-10.312 21.609,-22.226"
             id="path42"
             style="fill:#ffffff;fill-opacity:1;fill-rule:nonzero;stroke:none" /><path
             d="m 326.367,308.145 -22.937,0 0,123.335 c 0,10.118 8.218,18.34 18.367,18.34 l 4.57,0 0,-141.675"
             id="path44"
             style="fill:#ffffff;fill-opacity:1;fill-rule:nonzero;stroke:none" /><path
             d="m 518.352,194.238 c -1.704,0.293 -3.071,0.391 -4.512,0.391 -20.586,0 -24.621,-17.969 -24.621,-24.707 l 0,-49.102 -22.918,0 0,91.778 21.969,0 0,-15.293 0.375,0 c 4.96,10.507 14.695,17.949 26.765,17.949 0.879,0 1.945,-0.039 2.942,-0.117 l 0,-20.899"
             id="path46"
             style="fill:#ffffff;fill-opacity:1;fill-rule:nonzero;stroke:none" /><path
             d="m 656.953,305.859 c 12.996,0 23.906,5.918 28.485,13.946 l 0.558,0 0,-11.66 21.453,0 0,55.796 c 0,18.309 -8.047,38.582 -40.945,38.582 -13.938,0 -28.477,-4.961 -38.777,-14.55 l 11.843,-13.934 c 5.918,5.977 15.274,10.527 25.047,10.527 11.469,0 21.02,-5.527 21.02,-16.796 l 0,-2.305 c -28.684,0 -63.078,-3.789 -63.078,-31.11 0,-21.425 19.668,-28.496 34.394,-28.496 z m 4.578,17.364 c -7.781,0 -16.043,2.695 -16.043,11.504 0,13.531 20.43,15.277 34.992,15.277 l 5.157,0 0,-3.309 c 0,-14.488 -8.418,-23.472 -24.106,-23.472"
             id="path48"
             style="fill:#ffffff;fill-opacity:1;fill-rule:nonzero;stroke:none" /><path
             d="m 728.977,120.82 -22.942,0 0,50.821 c 0,10.937 -2.48,24.472 -17.207,24.472 -14.512,0 -21.367,-12.597 -21.367,-24.804 l 0,-50.489 -22.957,0 0,91.778 12.184,0 c 5.277,0 9.601,-4.356 9.601,-9.629 l 0,-5.098 0.383,0 c 3.98,9.16 14.871,17.383 28.473,17.383 23.91,0 33.832,-18.34 33.832,-37.09 l 0,-57.344"
             id="path50"
             style="fill:#ffffff;fill-opacity:1;fill-rule:nonzero;stroke:none" /><path
             d="m 834.355,120.82 -22.917,0 0,50.821 c 0,10.937 -2.512,24.472 -17.219,24.472 -14.512,0 -21.399,-12.597 -21.399,-24.804 l 0,-50.489 -22.898,0 0,91.778 12.129,0 c 5.332,0 9.637,-4.356 9.637,-9.629 l 0,-5.098 0.363,0 c 4.011,9.16 14.875,17.383 28.469,17.383 23.914,0 33.835,-18.34 33.835,-37.09 l 0,-57.344"
             id="path52"
             style="fill:#ffffff;fill-opacity:1;fill-rule:nonzero;stroke:none" /><path
             d="m 845.645,381.547 -22.918,0 0,-42.66 c 0,-8.223 1.89,-14.16 12.031,-14.16 3.047,0 7.058,0.605 9.734,1.933 l 0.774,-17.969 c -4.028,-1.523 -10.137,-2.461 -15.293,-2.461 -24.282,0 -29.805,14.864 -29.805,32.461 l 0,69.352 c 0,10.137 8.25,18.398 18.34,18.398 l 4.219,0 0,-26.562 22.918,0 0,-18.332"
             id="path54"
             style="fill:#ffffff;fill-opacity:1;fill-rule:nonzero;stroke:none" /><path
             d="m 1060.9,381.547 -22.89,0 0,-42.66 c 0,-8.223 1.89,-14.16 12.03,-14.16 3.05,0 7.03,0.605 9.73,1.933 l 0.78,-17.969 c -4.03,-1.523 -10.13,-2.461 -15.33,-2.461 -24.26,0 -29.79,14.864 -29.79,32.461 l 0,69.352 c 0,10.137 8.19,18.398 18.38,18.398 l 4.2,0 0,-26.562 22.89,0 0,-18.332"
             id="path56"
             style="fill:#ffffff;fill-opacity:1;fill-rule:nonzero;stroke:none" /><path
             d="m 872.07,175.84 c 0.938,12.851 11.848,22.226 25.391,22.226 14.883,0 21.609,-10.312 21.609,-22.226 l -47,0 z m 69.91,-10.254 c 0,33.047 -18.71,49.668 -44.351,49.668 -27.68,0 -48.496,-19.473 -48.496,-49.102 0,-29.843 21.012,-47.968 49.285,-47.968 17.402,0 30.398,6.074 39.363,18.339 L 922.5,148.73 c -5.164,-7.226 -12.805,-11.855 -24.277,-11.855 -13.34,0 -25.215,9.551 -26.153,22.598 l 69.754,0 c 0.156,2.089 0.156,3.984 0.156,6.113"
             id="path58"
             style="fill:#ffffff;fill-opacity:1;fill-rule:nonzero;stroke:none" /><path
             d="m 955.273,385.348 c -13.543,0 -24.414,-9.375 -25.378,-22.188 l 47.007,0 c 0,11.824 -6.699,22.188 -21.629,22.188 z m 44.383,-38.653 -69.761,0 c 0.964,-12.945 12.8,-22.496 26.191,-22.496 11.441,0 19.09,4.531 24.266,11.836 l 15.285,-12.207 c -9.004,-12.266 -21.977,-18.398 -39.375,-18.398 -28.274,0 -49.309,18.183 -49.309,48.023 0,29.609 20.84,49.07 48.543,49.07 25.598,0 44.348,-16.609 44.348,-49.695 0,-2.082 0,-3.976 -0.188,-6.133"
             id="path60"
             style="fill:#ffffff;fill-opacity:1;fill-rule:nonzero;stroke:none" /><path
             d="m 561.57,324.57 c 17.805,0 26.399,15.469 26.399,29.77 0,14.367 -8.594,29.465 -26.399,29.465 -16.797,0 -26.914,-15.52 -26.914,-29.825 0,-14.292 10.117,-29.41 26.914,-29.41 z m -49.082,75.309 21.946,0 0,-12.813 0.617,0 c 4.566,7.227 14.871,15.457 31.707,15.457 26.172,0 44.512,-20.976 44.512,-48.183 0,-26.723 -17.176,-48.91 -45.118,-48.91 -12.785,0 -24.441,5.781 -30.359,14.922 l -0.395,0 0,-39.59 c -1.851,-8.184 -9.128,-14.278 -17.871,-14.278 l -5.039,0 0,133.395"
             id="path62"
             style="fill:#ffffff;fill-opacity:1;fill-rule:nonzero;stroke:none" /><path
             d="m 395.145,196.543 c -16.61,0 -26.368,-13.027 -26.368,-29.238 0,-14.532 9.758,-29.082 26.196,-29.082 16.961,0 27.293,13.75 27.293,29.082 0,15.82 -10.481,29.238 -27.121,29.238 z m 48.917,-67.52 C 444.062,96.0156 428.02,75 392.297,75 377.363,75 358.66,80.332 346.836,90.1172 l 13.152,17.6948 c 8.789,-8.4175 20.625,-12.9682 32.09,-12.9682 22.16,0 29.067,13.3402 29.067,31.5042 l 0,6.679 -0.415,0 c -6.668,-8.925 -17.351,-13.711 -29.976,-13.711 -27.492,0 -45.274,21.817 -45.274,47.793 0,26.543 17.208,48.145 44.891,48.145 12.805,0 24.832,-5.313 31.531,-16.445 l 0.364,0 0,4.16 c 0,5.273 4.355,9.629 9.648,9.629 l 12.148,0 0,-83.575"
             id="path64"
             style="fill:#ffffff;fill-opacity:1;fill-rule:nonzero;stroke:none" /><path
             d="m 577.273,136.68 c -6.304,0 -12.41,1.933 -16.648,5.957 l 39.961,40.488 c 2.668,-4.238 4.004,-10.273 4.004,-16.016 0,-14.336 -7.82,-30.429 -27.317,-30.429 z m -27.332,29.804 c 0,14.395 8.582,30.821 27.332,30.821 6.282,0 12.434,-2.5 16.426,-5.957 L 554.16,150.664 c -2.89,3.789 -4.219,10.352 -4.219,15.82 z m 78.938,45.332 -8.039,7.657 -13.391,-13.77 c -7.82,6.113 -18.511,9.551 -30.176,9.551 -27.73,0 -49.902,-19.707 -49.902,-48.574 0,-12.598 4.223,-23.496 11.313,-31.543 l -12.832,-12.949 7.625,-7.852 13.425,13.535 c 8.008,-6.269 18.696,-9.687 30.371,-9.687 27.715,0 49.875,19.648 49.875,48.496 0,12.402 -4.218,23.164 -11.472,31.601 l 13.203,13.535"
             id="path66"
             style="fill:#ffffff;fill-opacity:1;fill-rule:nonzero;stroke:none" /><path
             d="m 444.758,323.984 c -6.281,0 -12.403,1.934 -16.574,5.918 l 39.89,40.524 c 2.656,-4.25 4.004,-10.332 4.004,-16.086 0,-14.301 -7.801,-30.356 -27.32,-30.356 z m -27.309,29.782 c 0,14.355 8.598,30.8 27.309,30.8 6.347,0 12.43,-2.461 16.433,-5.918 L 421.66,337.949 c -2.859,3.844 -4.211,10.309 -4.211,15.817 z m 78.906,45.371 -7.996,7.578 -13.398,-13.789 c -7.852,6.211 -18.523,9.597 -30.203,9.597 -27.668,0 -49.817,-19.668 -49.817,-48.543 0,-12.613 4.18,-23.472 11.25,-31.558 l -12.824,-12.949 7.649,-7.813 13.379,13.516 c 8.015,-6.289 18.75,-9.746 30.363,-9.746 27.73,0 49.898,19.687 49.898,48.55 0,12.461 -4.207,23.172 -11.465,31.524 l 13.164,13.633"
             id="path68"
             style="fill:#ffffff;fill-opacity:1;fill-rule:nonzero;stroke:none" /></g></g></g></g></svg>